Coordinates
version=1
nRows=33
nColumns=38
inDegrees=no

Units are S.I. units (second, meters, Newtons, ...)
If the header above contains a line with 'inDegrees', this indicates whether rotational values are in degrees (yes) or radians (no).

endheader
time	pelvis_tilt	pelvis_list	pelvis_rotation	pelvis_tx	pelvis_ty	pelvis_tz	hip_flexion_r	hip_adduction_r	hip_rotation_r	knee_angle_r	ankle_angle_r	subtalar_angle_r	mtp_angle_r	hip_flexion_l	hip_adduction_l	hip_rotation_l	knee_angle_l	ankle_angle_l	subtalar_angle_l	mtp_angle_l	lumbar_extension	lumbar_bending	lumbar_rotation	arm_flex_r	arm_add_r	arm_rot_r	elbow_flex_r	pro_sup_r	wrist_flex_r	wrist_dev_r	arm_flex_l	arm_add_l	arm_rot_l	elbow_flex_l	pro_sup_l	wrist_flex_l	wrist_dev_l
0	-0.305551	1.49656	-1.10411	0.826911	1.55512	0.923613	0.511686	-0.0776107	-0.382371	0.291633	0.181828	0	0	-0.386218	-0.0140119	-0.0018714	0.296714	0.355962	0	0	-0.161863	-0.0203334	-0.241594	-0.0346526	-0.0559558	-0.223214	0.274867	1.45393	0	0	-0.107853	-0.514348	0.675163	0.726183	0.681303	0	0
0.01	-0.30064	1.50155	-1.09877	0.827749	1.5389	0.922238	0.509114	-0.0762073	-0.355032	0.311918	0.17678	0	0	-0.381344	-0.0184457	0.00534064	0.32736	0.345197	0	0	-0.152986	-0.0184787	-0.252517	-0.0407328	-0.057619	-0.222433	0.273851	1.4552	0	0	-0.111899	-0.50962	0.676416	0.721224	0.679836	0	0
0.02	-0.326205	1.50752	-1.06254	0.828309	1.52144	0.92064	0.508341	-0.0788091	-0.352389	0.339905	0.186485	0	0	-0.372914	-0.0260084	0.0073569	0.363021	0.333055	0	0	-0.138688	-0.0162764	-0.26376	-0.0503911	-0.059501	-0.221777	0.272066	1.45694	0	0	-0.121502	-0.505621	0.675721	0.718054	0.678915	0	0
0.03	-0.376231	1.51336	-1.00134	0.828965	1.50352	0.919076	0.503797	-0.0792484	-0.353358	0.35706	0.191763	0	0	-0.361133	-0.035234	0.00769307	0.403601	0.317005	0	0	-0.122602	-0.0129427	-0.27499	-0.0615586	-0.0622757	-0.221878	0.270214	1.45894	0	0	-0.13298	-0.501085	0.673794	0.715493	0.679368	0	0
0.04	-0.46755	1.51827	-0.899795	0.829404	1.48557	0.917714	0.496339	-0.0759897	-0.356023	0.357708	0.167699	0	0	-0.345334	-0.0464591	0.00605335	0.449065	0.295443	0	0	-0.106064	-0.00798319	-0.283937	-0.073091	-0.0655173	-0.22299	0.268212	1.46081	0	0	-0.143607	-0.496091	0.672009	0.711317	0.680449	0	0
0.05	-0.633561	1.5208	-0.727245	0.829195	1.46807	0.916805	0.491245	-0.0685024	-0.358083	0.352981	0.110015	0	0	-0.323871	-0.0607141	0.000841442	0.50059	0.266572	0	0	-0.090049	5.1886e-06	-0.288074	-0.0834817	-0.0688593	-0.224876	0.266978	1.46246	0	0	-0.15062	-0.490627	0.673415	0.703752	0.681069	0	0
0.06	-0.880243	1.51875	-0.480705	0.828249	1.45138	0.9165	0.495156	-0.0569493	-0.355003	0.362953	0.0562662	0	0	-0.295097	-0.0776018	-0.0079419	0.559563	0.22927	0	0	-0.0751615	0.0128659	-0.285478	-0.0914305	-0.0726415	-0.227104	0.267915	1.46432	0	0	-0.153876	-0.483879	0.676967	0.694155	0.68054	0	0
0.07	-1.17905	1.51303	-0.188019	0.827016	1.43539	0.916332	0.514387	-0.0453084	-0.346717	0.398353	0.0339667	0	0	-0.254869	-0.0940578	-0.0178554	0.627999	0.182639	0	0	-0.0572564	0.0286304	-0.277686	-0.0984236	-0.0773105	-0.230998	0.271573	1.46723	0	0	-0.155955	-0.475347	0.680782	0.684361	0.676434	0	0
0.08	-1.35442	1.50681	-0.0193242	0.825945	1.41952	0.916438	0.537758	-0.0485853	-0.364181	0.458671	0.0403329	0	0	-0.215173	-0.104887	-0.0204876	0.69853	0.128563	0	0	-0.0438787	0.0408872	-0.271086	-0.10428	-0.0808219	-0.238777	0.275538	1.47555	0	0	-0.160978	-0.470734	0.685294	0.684632	0.658511	0	0
0.09	-1.33891	1.4976	-0.0404555	0.825702	1.40435	0.917857	0.539798	-0.0309248	-0.328382	0.491328	0.0347367	0	0	-0.184903	-0.114911	-0.0172645	0.768217	0.0684183	0	0	-0.0460289	0.0575954	-0.267072	-0.104649	-0.0860594	-0.240484	0.278356	1.47815	0	0	-0.164769	-0.464074	0.682477	0.686721	0.651111	0	0
0.1	-1.33165	1.48976	-0.0517501	0.825052	1.38914	0.918861	0.540429	-0.0215727	-0.319771	0.524692	0.029848	0	0	-0.149978	-0.125207	-0.0137889	0.841119	0.00256156	0	0	-0.047623	0.0713268	-0.265934	-0.106137	-0.0894197	-0.241564	0.282494	1.48235	0	0	-0.172754	-0.461983	0.677691	0.696859	0.639918	0	0
0.11	-1.30962	1.48265	-0.0765735	0.824232	1.37426	0.919911	0.53297	-0.0119238	-0.317869	0.54502	0.0236088	0	0	-0.114221	-0.135197	-0.00902809	0.912834	-0.0645022	0	0	-0.0515051	0.0830989	-0.266413	-0.10715	-0.0915783	-0.241224	0.287025	1.48674	0	0	-0.180791	-0.462539	0.674239	0.708678	0.630125	0	0
0.12	-1.31926	1.47898	-0.0699241	0.823395	1.35995	0.920716	0.517195	-0.00352834	-0.286143	0.545172	0.0232879	0	0	-0.0736866	-0.14092	-0.00325849	0.980948	-0.133352	0	0	-0.0527246	0.0905339	-0.26637	-0.109032	-0.0930452	-0.240403	0.293285	1.49095	0	0	-0.187072	-0.464517	0.674217	0.71927	0.6234	0	0
0.13	-1.31265	1.4728	-0.0785976	0.822033	1.34556	0.921905	0.505349	0.00610975	-0.328861	0.553643	0.024051	0	0	-0.0364611	-0.151453	0.000456964	1.04046	-0.203074	0	0	-0.0547807	0.0985928	-0.264776	-0.114686	-0.092905	-0.242444	0.30501	1.49955	0	0	-0.189542	-0.470762	0.686257	0.73034	0.60316	0	0
0.14	-1.30913	1.47194	-0.0850284	0.820823	1.33157	0.923288	0.485713	0.0125997	-0.334644	0.547445	0.030159	0	0	-0.000452719	-0.153918	0.00558812	1.09192	-0.265895	0	0	-0.0558811	0.100629	-0.261424	-0.119685	-0.0919365	-0.247159	0.314764	1.50392	0	0	-0.188393	-0.475751	0.699829	0.733198	0.596058	0	0
0.15	-1.30813	1.47248	-0.0899943	0.819596	1.3179	0.924997	0.466015	0.0187057	-0.337787	0.539586	0.0370365	0	0	0.0348509	-0.152876	0.011958	1.14065	-0.305897	0	0	-0.0564739	0.100943	-0.25632	-0.124073	-0.0907179	-0.25295	0.323474	1.50804	0	0	-0.185446	-0.480043	0.714035	0.733027	0.596333	0	0
0.16	-1.30949	1.47324	-0.0940017	0.818373	1.30458	0.927118	0.447639	0.0257416	-0.336226	0.532738	0.0431082	0	0	0.0707261	-0.149663	0.0189254	1.19045	-0.309626	0	0	-0.0570911	0.101138	-0.250197	-0.125838	-0.0898672	-0.257231	0.328205	1.51108	0	0	-0.18298	-0.482197	0.722303	0.731331	0.601584	0	0
0.17	-1.30878	1.47351	-0.101492	0.8171	1.29154	0.929671	0.429699	0.0348108	-0.328168	0.526243	0.048228	0	0	0.106226	-0.146729	0.0239946	1.23728	-0.287073	0	0	-0.0582781	0.101907	-0.242976	-0.124941	-0.0893501	-0.26094	0.328837	1.51309	0	0	-0.181228	-0.482815	0.725249	0.729633	0.606984	0	0
0.18	-1.29515	1.47432	-0.123065	0.815778	1.27858	0.932613	0.410495	0.0439919	-0.314783	0.519683	0.0534333	0	0	0.139397	-0.143487	0.0262327	1.27748	-0.254504	0	0	-0.0608341	0.101848	-0.235093	-0.122157	-0.088931	-0.264478	0.326254	1.51411	0	0	-0.181002	-0.482762	0.723927	0.729291	0.613296	0	0
0.19	-1.26834	1.47631	-0.158498	0.814511	1.2657	0.935833	0.388761	0.0516955	-0.29991	0.51053	0.0585042	0	0	0.170553	-0.138925	0.0263298	1.3109	-0.222196	0	0	-0.0647049	0.100317	-0.226543	-0.118737	-0.0885464	-0.267027	0.322104	1.51498	0	0	-0.181509	-0.482036	0.719542	0.729654	0.619548	0	0
0.2	-1.2354	1.47913	-0.200477	0.813262	1.25289	0.939174	0.364567	0.057999	-0.285921	0.49726	0.0631405	0	0	0.200826	-0.133058	0.0255842	1.33774	-0.194942	0	0	-0.0690482	0.097758	-0.217387	-0.115505	-0.0881965	-0.269281	0.317562	1.51588	0	0	-0.182382	-0.481178	0.714078	0.730298	0.623696	0	0
0.21	-1.19638	1.48208	-0.248705	0.811995	1.24014	0.942549	0.337841	0.0632986	-0.274459	0.479897	0.0675109	0	0	0.230157	-0.126621	0.0248018	1.35824	-0.173584	0	0	-0.0738985	0.0949349	-0.207317	-0.113439	-0.0877493	-0.27276	0.314237	1.51706	0	0	-0.182483	-0.480361	0.708919	0.730468	0.623673	0	0
0.22	-1.1514	1.48496	-0.303429	0.81069	1.22745	0.945882	0.309076	0.0677944	-0.265587	0.459277	0.0714298	0	0	0.258368	-0.12015	0.0235481	1.37291	-0.156635	0	0	-0.0793458	0.0921473	-0.19578	-0.112935	-0.0872869	-0.278235	0.313205	1.51815	0	0	-0.180714	-0.479674	0.707375	0.72942	0.620391	0	0
0.23	-1.10681	1.48786	-0.358248	0.809405	1.21499	0.949058	0.28027	0.0710991	-0.259351	0.437168	0.074173	0	0	0.286367	-0.113542	0.022048	1.38241	-0.142851	0	0	-0.0850527	0.0895651	-0.182989	-0.113497	-0.0870765	-0.284294	0.314168	1.51922	0	0	-0.176567	-0.478951	0.70929	0.726762	0.614225	0	0
0.24	-1.06554	1.49046	-0.411219	0.807996	1.20273	0.95201	0.251876	0.07445	-0.253059	0.414339	0.0763037	0	0	0.313746	-0.108011	0.0192149	1.38687	-0.131001	0	0	-0.0909342	0.0872713	-0.16826	-0.114792	-0.0871391	-0.289974	0.316664	1.52022	0	0	-0.172408	-0.478455	0.709752	0.726027	0.609815	0	0
0.25	-1.02777	1.49345	-0.461337	0.806512	1.19051	0.954704	0.224168	0.0769032	-0.246718	0.391708	0.0798156	0	0	0.340582	-0.102786	0.0155361	1.38638	-0.120647	0	0	-0.0961632	0.084434	-0.153405	-0.116295	-0.0873882	-0.294258	0.319137	1.52092	0	0	-0.169651	-0.477921	0.707095	0.725758	0.606328	0	0
0.26	-0.98056	1.49579	-0.522078	0.804845	1.17829	0.957284	0.195025	0.0796917	-0.237738	0.367333	0.0825386	0	0	0.364749	-0.0990674	0.0103056	1.38066	-0.110895	0	0	-0.102259	0.0814634	-0.137866	-0.118326	-0.0876407	-0.298036	0.322334	1.52284	0	0	-0.167391	-0.477131	0.70312	0.72532	0.603478	0	0
0.27	-0.924322	1.49868	-0.592051	0.803213	1.16625	0.959627	0.167791	0.0804677	-0.228894	0.345983	0.0852268	0	0	0.387767	-0.0948223	0.00419856	1.37052	-0.101393	0	0	-0.108544	0.0771971	-0.122631	-0.120059	-0.0881461	-0.299463	0.324237	1.5271	0	0	-0.165298	-0.476836	0.699385	0.726027	0.602776	0	0
0.28	-0.85136	1.50145	-0.678487	0.801686	1.15437	0.961808	0.141253	0.0797215	-0.218997	0.326785	0.0881574	0	0	0.408785	-0.0897597	-0.00181119	1.35576	-0.0913924	0	0	-0.115629	0.0718763	-0.108235	-0.120276	-0.0888378	-0.301053	0.324866	1.53092	0	0	-0.163658	-0.476721	0.695226	0.727257	0.60367	0	0
0.29	-0.737792	1.50661	-0.80512	0.800719	1.14258	0.963686	0.109132	0.0707919	-0.176954	0.297257	0.0895239	0	0	0.428192	-0.0789322	-0.00792791	1.33598	-0.0806836	0	0	-0.12217	0.0630741	-0.0954632	-0.119955	-0.0903234	-0.303126	0.325859	1.53392	0	0	-0.162602	-0.475557	0.690246	0.727363	0.605444	0	0
0.3	-0.631114	1.50878	-0.926282	0.799178	1.13078	0.965408	0.0837325	0.0677103	-0.162539	0.279895	0.0918938	0	0	0.445047	-0.0735453	-0.0156247	1.31219	-0.0680442	0	0	-0.129262	0.0555522	-0.0822651	-0.118902	-0.0914305	-0.304272	0.326369	1.53692	0	0	-0.162897	-0.475343	0.683734	0.727806	0.607281	0	0
0.31	-0.559058	1.50746	-1.01335	0.797175	1.11906	0.96704	0.0646768	0.0729378	-0.174982	0.274506	0.0958485	0	0	0.459159	-0.0741895	-0.023336	1.28458	-0.0528667	0	0	-0.137678	0.0508291	-0.0688527	-0.117071	-0.0922168	-0.306435	0.327039	1.5409	0	0	-0.163418	-0.475567	0.675696	0.728618	0.609916	0	0
0.32	-0.479849	1.5092	-1.10621	0.795669	1.10743	0.968111	0.0427746	0.0693507	-0.164742	0.259931	0.100189	0	0	0.474595	-0.0707373	-0.0300615	1.253	-0.0367877	0	0	-0.142836	0.044269	-0.0576234	-0.115573	-0.0935076	-0.308638	0.328228	1.54328	0	0	-0.163375	-0.474943	0.669759	0.72743	0.610367	0	0
